<?xml version="1.0" encoding="UTF-8"?>
<svg version="1.1" xmlns="http://www.w3.org/2000/svg" width="632" height="395">
<path d="M0 0 C3.61480825 1.78303202 7.08504994 3.77663638 10.5625 5.8125 C11.57828125 6.39708984 12.5940625 6.98167969 13.640625 7.58398438 C15.74446484 8.7953257 17.84618142 10.01036186 19.94580078 11.22900391 C24.45124203 13.84151157 28.97621658 16.4194374 33.5 19 C34.34054932 19.48114258 35.18109863 19.96228516 36.04711914 20.45800781 C43.82999689 24.91294797 51.63750562 29.32392772 59.45117188 33.72460938 C60.36447266 34.23958984 61.27777344 34.75457031 62.21875 35.28515625 C63.02248047 35.73769775 63.82621094 36.19023926 64.65429688 36.65649414 C65.42837891 37.09985107 66.20246094 37.54320801 67 38 C67.91354248 38.39155273 68.82708496 38.78310547 69.76831055 39.18652344 C72 41 72 41 72.56762695 44.46166992 C72.56683711 45.88484843 72.53868344 47.30818281 72.48828125 48.73046875 C72.47766914 49.85609978 72.47766914 49.85609978 72.46684265 51.00447083 C72.43886657 53.39983095 72.37613009 55.79284747 72.3125 58.1875 C72.28742092 59.81181518 72.26460706 61.43616703 72.24414062 63.06054688 C72.18903043 67.04126671 72.10274233 71.02023615 72 75 C68.11887071 73.54452071 64.57711329 71.74985743 60.95703125 69.734375 C60.38852951 69.41849426 59.82002777 69.10261353 59.23429871 68.77716064 C58.03423456 68.10953068 56.83497298 67.44045626 55.63647461 66.77001953 C53.83705867 65.76373392 52.03498762 64.76234884 50.23242188 63.76171875 C43.41137878 59.96547611 36.66125825 56.07071584 30 52 C29.05192023 56.45711508 28.51882068 59.58753572 30 64 C34.2909317 68.01935375 39.83423365 70.53518926 45.09887695 73.04541016 C47 74 47 74 50 76 C50.26711404 78.55395487 50.34849029 80.86274374 50.29296875 83.4140625 C50.28872391 84.14370209 50.28447906 84.87334167 50.28010559 85.62509155 C50.26329353 87.95876759 50.22563868 90.2915844 50.1875 92.625 C50.17245634 94.20571671 50.15876738 95.78644693 50.14648438 97.3671875 C50.11338201 101.24512344 50.06158404 105.12241598 50 109 C45 108 45 108 30 99 C29.67 111.54 29.34 124.08 29 137 C25.61824238 136.15456059 23.5223716 135.32958687 20.55078125 133.671875 C19.70193359 133.20136719 18.85308594 132.73085938 17.97851562 132.24609375 C17.09873047 131.75238281 16.21894531 131.25867188 15.3125 130.75 C14.45205078 130.27175781 13.59160156 129.79351562 12.70507812 129.30078125 C11.06696594 128.3897588 9.42986674 127.47691037 7.79418945 126.56152344 C3.86699031 124.36682132 -0.0673015 122.1848325 -4 120 C-4 91.29 -4 62.58 -4 33 C-9.61 36.3 -15.22 39.6 -21 43 C-21.66 43 -22.32 43 -23 43 C-22.97113205 43.9343689 -22.9422641 44.86873779 -22.91252136 45.8314209 C-22.64843583 54.65786585 -22.45386667 63.48350546 -22.32644176 72.31301117 C-22.25872091 76.85228166 -22.16697973 81.38835277 -22.01928711 85.92578125 C-21.87750787 90.30922021 -21.80020973 94.6895942 -21.76659584 99.07514954 C-21.74266224 100.74368069 -21.69591315 102.41205247 -21.62550926 104.07926941 C-21.41282985 109.32676109 -21.42373492 113.95672682 -23 119 C-26.93648026 122.86665446 -30.92769107 124.80560582 -36 127 C-37.72448878 127.96807954 -39.43981299 128.95309731 -41.13671875 129.96875 C-42.651953 130.81553629 -44.16883536 131.65938145 -45.6875 132.5 C-46.47060547 132.94085938 -47.25371094 133.38171875 -48.06054688 133.8359375 C-48.80755859 134.25101563 -49.55457031 134.66609375 -50.32421875 135.09375 C-50.98510498 135.46177734 -51.64599121 135.82980469 -52.3269043 136.20898438 C-54 137 -54 137 -56 137 C-56.33 112.58 -56.66 88.16 -57 63 C-63.93 66.96 -70.86 70.92 -78 75 C-78.66 75 -79.32 75 -80 75 C-80 63.78 -80 52.56 -80 41 C-76.1225 38.855 -72.245 36.71 -68.25 34.5 C-58.89114923 29.30881637 -49.55996011 24.07261579 -40.26898193 18.76095581 C-38.50456592 17.75260938 -36.73889076 16.74649331 -34.97314453 15.74047852 C-29.68812098 12.72094595 -24.42797089 9.67341254 -19.2265625 6.51171875 C-18.35580078 5.98803711 -17.48503906 5.46435547 -16.58789062 4.92480469 C-15.00224668 3.96725682 -13.42462869 2.99622384 -11.85742188 2.00878906 C-7.50825977 -0.6067768 -5.02204545 -1.81714656 0 0 Z " fill="#F70000" transform="translate(100,129)"/>
<path d="M0 0 C17.16 0 34.32 0 52 0 C52 4.29 52 8.58 52 13 C58.93 13.495 58.93 13.495 66 14 C67.98 22.58 69.96 31.16 72 40 C72.598125 37.751875 73.19625 35.50375 73.8125 33.1875 C75.51789688 26.78507702 77.2492604 20.39019956 79 14 C84.94 14 90.88 14 97 14 C94.49360724 23.78038044 91.38611168 33.3395633 88.17675781 42.9074707 C87.55801826 44.76352636 86.94735332 46.622293 86.34472656 48.48364258 C85.46210231 51.20794235 84.55417214 53.92265434 83.640625 56.63671875 C83.37993225 57.45774582 83.1192395 58.27877289 82.85064697 59.12467957 C80.52851786 65.87186824 76.74707891 71.75881152 70.51171875 75.48828125 C67.23117636 76.15663436 64.15941993 76.22629465 60.8125 76.1875 C58.96591797 76.17783203 58.96591797 76.17783203 57.08203125 76.16796875 C54 76 54 76 52 75 C52.47939368 70.28596212 52.96834048 66.33420699 55 62 C57.64 62 60.28 62 63 62 C62.81207886 61.44289841 62.62415771 60.88579681 62.43054199 60.31181335 C60.47870991 54.52259531 58.53317318 48.73128954 56.59130859 42.9387207 C55.86538964 40.77606685 55.13785741 38.61395381 54.40869141 36.45239258 C53.36197932 33.34857081 52.32105003 30.24286185 51.28125 27.13671875 C50.95314331 26.16788254 50.62503662 25.19904633 50.2869873 24.20085144 C49.98667603 23.3001442 49.68636475 22.39943695 49.37695312 21.47143555 C49.11047974 20.67867722 48.84400635 19.88591888 48.56945801 19.06913757 C48 17 48 17 48 14 C43.38 14 38.76 14 34 14 C34 28.85 34 43.7 34 59 C28.39 59 22.78 59 17 59 C17 44.15 17 29.3 17 14 C11.39 14 5.78 14 0 14 C0 9.38 0 4.76 0 0 Z " fill="#08252D" transform="translate(215,128)"/>
<path d="M0 0 C5.61 0 11.22 0 17 0 C17.33 1.32 17.66 2.64 18 4 C18.598125 3.34 19.19625 2.68 19.8125 2 C24.48318944 -0.93062867 28.62308609 -0.75600798 34 0 C39.3332402 1.74186561 42.47901615 5.05140207 45 10 C47.97181923 17.83332787 48.09410519 27.752609 44.98828125 35.53515625 C42.34476615 39.99660918 39.04244007 43.78302397 34.125 45.75 C28.15273195 46.45261977 24.23455224 46.11580491 19 43 C18.505 42.505 18.505 42.505 18 42 C17.67 48.6 17.34 55.2 17 62 C11.39 62 5.78 62 0 62 C0 41.54 0 21.08 0 0 Z M18.75 14.875 C16.34777571 19.16468622 16.12889052 23.17358259 17 28 C18.23645026 30.30392204 18.23645026 30.30392204 20 32 C23 32.66666667 23 32.66666667 26 32 C28.76901476 29.12673997 29.43141601 27.01100999 29.4375 23.0625 C29.32711635 19.50394125 29.03595405 18.06420367 27.25 14.875 C24.01162021 12.17635017 21.98837979 12.17635017 18.75 14.875 Z " fill="#07252C" transform="translate(315,142)"/>
<path d="M0 0 C5.28 0 10.56 0 16 0 C16.33 6.27 16.66 12.54 17 19 C18.65 17.68 20.3 16.36 22 15 C25.92513052 13.03743474 30.71087229 13.65811301 35 14 C39.7344316 15.91391916 42.72684393 19.45368786 45 24 C45.08667255 26.62627133 45.11560135 29.22562483 45.09765625 31.8515625 C45.0962413 32.62559418 45.09482635 33.39962585 45.09336853 34.19711304 C45.08776403 36.67311442 45.07521083 39.14902588 45.0625 41.625 C45.05748558 43.30208203 45.05292257 44.97916547 45.04882812 46.65625 C45.03864336 50.77089597 45.01906894 54.88534715 45 59 C39.39 59 33.78 59 28 59 C27.93941406 56.91816406 27.87882812 54.83632812 27.81640625 52.69140625 C27.75384593 50.68252498 27.69125225 48.67364459 27.62768555 46.66479492 C27.58428566 45.26510801 27.54261436 43.86536641 27.50268555 42.46557617 C27.44510555 40.45738505 27.38086 38.44938851 27.31640625 36.44140625 C27.27974854 35.23170166 27.24309082 34.02199707 27.20532227 32.77563477 C27.31061734 30.09294544 27.31061734 30.09294544 26 29 C23.04182893 28.74994614 23.04182893 28.74994614 20 29 C17.24560484 31.75439516 17.69010724 33.46603203 17.5859375 37.3203125 C17.54726563 38.57714844 17.50859375 39.83398438 17.46875 41.12890625 C17.4378125 42.44761719 17.406875 43.76632813 17.375 45.125 C17.33681971 46.46486918 17.29776794 47.80471383 17.2578125 49.14453125 C17.16328242 52.42945148 17.08054267 55.71470706 17 59 C11.39 59 5.78 59 0 59 C0 39.53 0 20.06 0 0 Z " fill="#08262E" transform="translate(367,128)"/>
<path d="M0 0 C13.86 0 27.72 0 42 0 C42 4.62 42 9.24 42 14 C33.75 14 25.5 14 17 14 C17 16.64 17 19.28 17 22 C17.6612085 21.99476318 18.32241699 21.98952637 19.00366211 21.98413086 C21.98159851 21.96342344 24.95951982 21.95035988 27.9375 21.9375 C28.97841797 21.92912109 30.01933594 21.92074219 31.09179688 21.91210938 C32.08115234 21.90888672 33.07050781 21.90566406 34.08984375 21.90234375 C35.46450806 21.89448853 35.46450806 21.89448853 36.86694336 21.88647461 C39 22 39 22 40 23 C40.14426614 27.66845228 40.04208415 32.32865953 40 37 C32.41 37 24.82 37 17 37 C17 44.26 17 51.52 17 59 C11.39 59 5.78 59 0 59 C0 39.53 0 20.06 0 0 Z " fill="#08252C" transform="translate(315,207)"/>
<path d="M0 0 C5.28 0 10.56 0 16 0 C16.33 1.65 16.66 3.3 17 5 C17.78375 4.360625 18.5675 3.72125 19.375 3.0625 C24.33280448 -0.8329178 28.85494257 -0.48982342 35 0 C39.7344316 1.91391916 42.72684393 5.45368786 45 10 C45.08667255 12.62627133 45.11560135 15.22562483 45.09765625 17.8515625 C45.0962413 18.62559418 45.09482635 19.39962585 45.09336853 20.19711304 C45.08776403 22.67311442 45.07521083 25.14902588 45.0625 27.625 C45.05748558 29.30208203 45.05292257 30.97916547 45.04882812 32.65625 C45.03864336 36.77089597 45.01906894 40.88534715 45 45 C39.39 45 33.78 45 28 45 C27.93941406 42.91816406 27.87882813 40.83632812 27.81640625 38.69140625 C27.75384593 36.68252498 27.69125225 34.67364459 27.62768555 32.66479492 C27.58428566 31.26510801 27.54261436 29.86536641 27.50268555 28.46557617 C27.44510555 26.45738505 27.38086 24.44938851 27.31640625 22.44140625 C27.27974854 21.23170166 27.24309082 20.02199707 27.20532227 18.77563477 C27.31061734 16.09294544 27.31061734 16.09294544 26 15 C23.04195427 14.66659529 23.04195427 14.66659529 20 15 C17.67547376 18.48678936 17.70226266 20.06967571 17.5859375 24.19921875 C17.54726563 25.40771484 17.50859375 26.61621094 17.46875 27.86132812 C17.42234375 29.7552832 17.42234375 29.7552832 17.375 31.6875 C17.33632813 32.96173828 17.29765625 34.23597656 17.2578125 35.54882812 C17.16342602 38.69897694 17.08061965 41.8494688 17 45 C11.39 45 5.78 45 0 45 C0 30.15 0 15.3 0 0 Z " fill="#08262D" transform="translate(519,142)"/>
<path d="M0 0 C5.28 0 10.56 0 16 0 C16.33 1.65 16.66 3.3 17 5 C17.78375 4.360625 18.5675 3.72125 19.375 3.0625 C24.3204847 -0.82323798 28.86278382 -0.60764517 35 0 C40.15796031 2.34452741 42.84110155 5.84230396 45 11 C45.33094454 13.85377394 45.47325065 16.28923061 45.390625 19.12109375 C45.38496521 19.86585464 45.37930542 20.61061554 45.37347412 21.37794495 C45.3512735 23.7318138 45.3011137 26.0840997 45.25 28.4375 C45.22991366 30.04359764 45.21166664 31.6497194 45.1953125 33.25585938 C45.15488092 37.17165742 45.07657421 41.08407979 45 45 C39.39 45 33.78 45 28 45 C27.67 35.1 27.34 25.2 27 15 C24.03 15 21.06 15 18 15 C17.67 24.9 17.34 34.8 17 45 C11.39 45 5.78 45 0 45 C0 30.15 0 15.3 0 0 Z " fill="#08262D" transform="translate(386,221)"/>
<path d="M0 0 C3.9360165 3.13874237 5.70528372 6.37404339 6.28613281 11.35498047 C6.28550743 12.80451628 6.26337701 14.25416114 6.22265625 15.703125 C6.21699646 16.47149689 6.21133667 17.23986877 6.20550537 18.03152466 C6.18325298 20.46698371 6.13308166 22.90092907 6.08203125 25.3359375 C6.06195167 26.9947703 6.04370345 28.65362634 6.02734375 30.3125 C5.98683855 34.36302038 5.90853856 38.41030057 5.83203125 42.4609375 C0.55203125 42.4609375 -4.72796875 42.4609375 -10.16796875 42.4609375 C-10.49796875 41.8009375 -10.82796875 41.1409375 -11.16796875 40.4609375 C-11.95171875 40.9559375 -12.73546875 41.4509375 -13.54296875 41.9609375 C-19.36305791 44.36925026 -24.69154574 44.36145496 -30.60546875 42.2109375 C-34.25534822 39.71833689 -35.77788302 37.6311947 -37.16796875 33.4609375 C-37.56306598 28.22589914 -37.10177726 24.86165026 -34.16796875 20.4609375 C-29.51478007 16.75380374 -25.5098371 15.58966048 -19.79296875 14.7109375 C-19.05691406 14.58589844 -18.32085937 14.46085937 -17.5625 14.33203125 C-15.7664476 14.02880162 -13.96746004 13.74304302 -12.16796875 13.4609375 C-12.16796875 12.4709375 -12.16796875 11.4809375 -12.16796875 10.4609375 C-14.58416698 10.21062773 -14.58416698 10.21062773 -17.16796875 10.4609375 C-18.15796875 11.9459375 -18.15796875 11.9459375 -19.16796875 13.4609375 C-21.95649765 13.68201537 -24.51450056 13.74201285 -27.29296875 13.6484375 C-28.42412109 13.62813477 -28.42412109 13.62813477 -29.578125 13.60742188 C-31.44171002 13.57203735 -33.30492853 13.51822917 -35.16796875 13.4609375 C-34.50647266 7.52154707 -33.56879347 4.67042201 -29.16796875 0.4609375 C-20.88901922 -4.93837741 -8.71877883 -4.02405177 0 0 Z M-20.16796875 26.4609375 C-20.49796875 27.4509375 -20.82796875 28.4409375 -21.16796875 29.4609375 C-20.00344865 31.12715175 -20.00344865 31.12715175 -18.16796875 32.4609375 C-14.93230673 32.38004595 -13.61615573 31.9245792 -11.35546875 29.5859375 C-9.92405807 27.43018122 -9.92405807 27.43018122 -10.16796875 24.4609375 C-14.11576189 24.4609375 -16.56417895 24.93933736 -20.16796875 26.4609375 Z " fill="#08252C" transform="translate(521.16796875,223.5390625)"/>
<path d="M0 0 C5.15971876 3.14454963 8.60583659 7.24273527 10.875 12.8125 C11.5 16.4375 11.5 16.4375 11.5 25.4375 C1.93 25.4375 -7.64 25.4375 -17.5 25.4375 C-15.15389418 30.56778949 -15.15389418 30.56778949 -11.5625 31.4375 C-8.50809488 31.77643669 -8.50809488 31.77643669 -6.82421875 29.94921875 C-3.43874236 27.74723663 -0.14368649 28.11585356 3.75 28.25 C4.86761719 28.27030273 4.86761719 28.27030273 6.0078125 28.29101562 C7.83885416 28.32622796 9.66952169 28.38003149 11.5 28.4375 C9.86455775 35.02230695 8.27177682 38.70282088 2.5 42.4375 C-4.69343563 45.32300243 -14.14161234 46.14726226 -21.5 43.25 C-29.447493 38.44838965 -32.22843135 34.53660833 -34.5 25.4375 C-35.68365264 18.02969642 -33.35562754 11.24745027 -29.3125 5.125 C-21.45311684 -2.38507724 -10.23521408 -4.54679702 0 0 Z M-15.375 12.875 C-16.07625 13.720625 -16.7775 14.56625 -17.5 15.4375 C-13.21 15.4375 -8.92 15.4375 -4.5 15.4375 C-6.0268318 11.25272617 -6.0268318 11.25272617 -9.3125 10.375 C-12.72279034 10.10619777 -12.72279034 10.10619777 -15.375 12.875 Z " fill="#08252C" transform="translate(600.5,222.5625)"/>
<path d="M0 0 C5.08735164 3.14772955 8.5299123 7.25103873 10.8125 12.75 C12.28458997 21.43533085 12.04006278 28.84847737 7.18359375 36.3828125 C3.66646947 40.96369916 0.13614092 43.3980085 -5.5625 44.4375 C-13.56953555 45.24833904 -20.7317389 45.02468476 -27.5625 40.4375 C-33.19804248 35.1694929 -35.59630478 28.61638317 -36 21 C-35.74624782 14.95223969 -33.92270591 9.15005893 -29.9140625 4.54296875 C-22.06854256 -2.49744325 -9.77421644 -4.41355122 0 0 Z M-16.23828125 13.078125 C-17.89909122 16.03720824 -17.96284575 18.05806702 -17.9375 21.4375 C-17.94523437 22.46875 -17.95296875 23.5 -17.9609375 24.5625 C-17.51705938 27.76538529 -16.81594751 29.15170636 -14.5625 31.4375 C-12.0625 32.10416667 -12.0625 32.10416667 -9.5625 31.4375 C-7.29764066 29.14561369 -6.60626856 27.78388347 -6.19921875 24.5625 C-6.21597656 23.53125 -6.23273438 22.5 -6.25 21.4375 C-6.25386719 20.40625 -6.25773437 19.375 -6.26171875 18.3125 C-6.55479287 15.51116814 -7.12148368 13.82579797 -8.5625 11.4375 C-12.81917941 10.91703791 -12.81917941 10.91703791 -16.23828125 13.078125 Z " fill="#08252C" transform="translate(452.5625,143.5625)"/>
<path d="M0 0 C4.86404627 2.99896535 8.27519958 7.11289917 10.8125 12.1875 C12.30743398 19.9611567 12.43644625 28.38288053 8.4375 35.4375 C3.62610332 40.99237961 -1.27040662 43.92005219 -8.640625 44.80859375 C-16.3643571 44.9702975 -22.25170453 44.11172724 -28.5625 39.4375 C-33.58974462 34.44582551 -35.24099716 28.65252835 -35.9375 21.6875 C-35.73515541 15.56955176 -33.87818761 9.19766793 -29.9140625 4.47265625 C-22.08147585 -2.52194624 -9.71613579 -4.38732488 0 0 Z M-16.4375 13.3125 C-18.22039771 18.26499364 -18.5829145 23.69096378 -16.7265625 28.6875 C-15.6115894 30.75888957 -15.6115894 30.75888957 -12.625 31.375 C-9.62919264 31.75078776 -9.62919264 31.75078776 -7.921875 30.20703125 C-5.4748787 27.02171709 -5.5430715 23.34910536 -5.5625 19.4375 C-6.26095884 15.07210257 -6.26095884 15.07210257 -8.5625 11.4375 C-12.97545974 10.83774849 -12.97545974 10.83774849 -16.4375 13.3125 Z " fill="#08252C" transform="translate(502.5625,143.5625)"/>
<path d="M0 0 C3.15119115 1.93446225 5.28687883 4.19615974 7.3125 7.3125 C7.725 7.93125 8.1375 8.55 8.5625 9.1875 C9.3125 11.3125 9.3125 11.3125 9.3125 18.3125 C4.0325 18.3125 -1.2475 18.3125 -6.6875 18.3125 C-7.3475 16.6625 -8.0075 15.0125 -8.6875 13.3125 C-9.74179686 12.04777935 -9.74179686 12.04777935 -12.125 12.0625 C-13.3934375 12.18625 -13.3934375 12.18625 -14.6875 12.3125 C-16.98533606 15.75925409 -16.98504883 17.24578112 -17 21.3125 C-17.01675781 22.364375 -17.03351563 23.41625 -17.05078125 24.5 C-16.91548076 27.31265029 -16.91548076 27.31265029 -15.328125 29.1875 C-13.66682041 30.55402774 -13.66682041 30.55402774 -11.125 30.3125 C-10.320625 29.9825 -9.51625 29.6525 -8.6875 29.3125 C-8.0275 27.6625 -7.3675 26.0125 -6.6875 24.3125 C-1.4075 24.3125 3.8725 24.3125 9.3125 24.3125 C9.00097325 31.06224631 8.08958937 35.3882174 3.3125 40.3125 C-3.37778079 45.20782741 -10.6745515 44.8121083 -18.6875 44.3125 C-24.84720059 43.30271302 -28.43305278 40.23037237 -32.27734375 35.4140625 C-36.56350452 29.02637692 -36.50617017 21.28126055 -35.29296875 13.91796875 C-33.6284818 7.61439557 -30.07263042 3.87299832 -24.6875 0.3125 C-17.7669362 -3.20065548 -7.07592506 -3.29764809 0 0 Z " fill="#07242C" transform="translate(471.6875,222.6875)"/>
<path d="M0 0 C5.28 0 10.56 0 16 0 C16.33 1.32 16.66 2.64 17 4 C17.639375 3.34 18.27875 2.68 18.9375 2 C22.99299648 -0.64848749 26.27277258 -0.56652431 31 0 C31.66 0.33 32.32 0.66 33 1 C32.52188823 2.77111844 32.0424722 4.54188483 31.5625 6.3125 C31.29566406 7.29863281 31.02882813 8.28476563 30.75390625 9.30078125 C30.21920575 11.21517526 29.62855462 13.11433615 29 15 C28.37351562 15.03738281 27.74703125 15.07476562 27.1015625 15.11328125 C26.28429687 15.17902344 25.46703125 15.24476563 24.625 15.3125 C23.40683594 15.39951172 23.40683594 15.39951172 22.1640625 15.48828125 C19.62078662 15.82990528 19.62078662 15.82990528 18 19 C17.63155492 21.8086043 17.63155492 21.8086043 17.5859375 24.98046875 C17.54726563 26.14384766 17.50859375 27.30722656 17.46875 28.50585938 C17.42234375 30.32827148 17.42234375 30.32827148 17.375 32.1875 C17.33632813 33.41404297 17.29765625 34.64058594 17.2578125 35.90429688 C17.16344206 38.93594715 17.08062826 41.96795312 17 45 C11.39 45 5.78 45 0 45 C0 30.15 0 15.3 0 0 Z " fill="#08272E" transform="translate(534,221)"/>
<path d="M0 0 C5.61 0 11.22 0 17 0 C17 14.85 17 29.7 17 45 C11.39 45 5.78 45 0 45 C0 30.15 0 15.3 0 0 Z " fill="#08252D" transform="translate(362,221)"/>
<path d="M0 0 C3.0766616 2.12999649 3.85763576 3.25654231 4.5625 6.9375 C3.79477021 11.11736219 2.42123173 12.52506641 -1 15 C-5.46801531 15.79785988 -7.24750505 15.51734028 -11 12.9375 C-13 10 -13 10 -13.125 6.4375 C-10.83738985 -0.55241989 -6.88821208 -2.00384351 0 0 Z " fill="#072128" transform="translate(375,203)"/>
<path d="M0 0 C4.95 0 9.9 0 15 0 C15.33 1.65 15.66 3.3 16 5 C16.66 5 17.32 5 18 5 C18.33 3.35 18.66 1.7 19 0 C20.65 0 22.3 0 24 0 C24 3.96 24 7.92 24 12 C19.38 12 14.76 12 10 12 C10 9.03 10 6.06 10 3 C9.01 3 8.02 3 7 3 C7 5.97 7 8.94 7 12 C5.68 12 4.36 12 3 12 C3 9.03 3 6.06 3 3 C2.01 3 1.02 3 0 3 C0 2.01 0 1.02 0 0 Z " fill="#05191F" transform="translate(588,128)"/>
<path d="M0 0 C-1.44077046 3.36179774 -3.24750021 5.59156268 -6 8 C-6.66 8 -7.32 8 -8 8 C-6.48291727 4.46014029 -4.24676932 0 0 0 Z " fill="#03161C" transform="translate(447,224)"/>
<path d="M0 0 C-0.58265625 0.26554688 -1.1653125 0.53109375 -1.765625 0.8046875 C-4.06174228 2.03302996 -5.80356018 3.40314939 -7.75 5.125 C-8.36359375 5.66382813 -8.9771875 6.20265625 -9.609375 6.7578125 C-10.06828125 7.16773438 -10.5271875 7.57765625 -11 8 C-9.04672006 1.97738686 -6.47971237 -0.53997603 0 0 Z " fill="#03161D" transform="translate(561,221)"/>
<path d="M0 0 C0.66 0.33 1.32 0.66 2 1 C0.88121617 2.17262904 -0.24523051 3.33795138 -1.375 4.5 C-2.00148438 5.1496875 -2.62796875 5.799375 -3.2734375 6.46875 C-5 8 -5 8 -7 8 C-5.50902342 4.2047869 -3.24299151 2.38957269 0 0 Z " fill="#03161D" transform="translate(428,144)"/>
<path d="M0 0 C0.66 0.33 1.32 0.66 2 1 C0.88121617 2.17262904 -0.24523051 3.33795138 -1.375 4.5 C-2.00148438 5.1496875 -2.62796875 5.799375 -3.2734375 6.46875 C-5 8 -5 8 -7 8 C-5.50902342 4.2047869 -3.24299151 2.38957269 0 0 Z " fill="#031318" transform="translate(478,144)"/>
<path d="M0 0 C0.66 0.33 1.32 0.66 2 1 C-0.31 3.31 -2.62 5.62 -5 8 C-5.33 7.34 -5.66 6.68 -6 6 C-2.25 1.125 -2.25 1.125 0 0 Z " fill="#03191F" transform="translate(541,143)"/>
<path d="M0 0 C0.66 0.33 1.32 0.66 2 1 C-0.31 3.31 -2.62 5.62 -5 8 C-5.33 7.34 -5.66 6.68 -6 6 C-2.25 1.125 -2.25 1.125 0 0 Z " fill="#041A20" transform="translate(389,143)"/>
</svg>
